<mxfile host="app.diagrams.net" modified="2023-06-27T11:14:08.066Z" agent="Mozilla/5.0 (Windows NT 10.0; Win64; x64) AppleWebKit/537.36 (KHTML, like Gecko) Chrome/114.0.0.0 Safari/537.36 Edg/114.0.1823.58" etag="uBA79qPSfVPAuJGHBRZh" version="21.5.1" type="device">
  <diagram name="페이지-1" id="dbmAVa-TtEF3vG8873Q5">
    <mxGraphModel dx="1379" dy="796" grid="1" gridSize="10" guides="1" tooltips="1" connect="1" arrows="1" fold="1" page="1" pageScale="1" pageWidth="827" pageHeight="1169" math="0" shadow="0">
      <root>
        <mxCell id="0" />
        <mxCell id="1" parent="0" />
        <mxCell id="3shfianWEVpC9XnsPvR2-1" value="관리자" style="shape=umlActor;verticalLabelPosition=bottom;verticalAlign=top;html=1;" vertex="1" parent="1">
          <mxGeometry x="50" y="300" width="30" height="60" as="geometry" />
        </mxCell>
        <mxCell id="3shfianWEVpC9XnsPvR2-2" value="비회원" style="shape=umlActor;verticalLabelPosition=bottom;verticalAlign=top;html=1;" vertex="1" parent="1">
          <mxGeometry x="50" y="40" width="30" height="60" as="geometry" />
        </mxCell>
        <mxCell id="3shfianWEVpC9XnsPvR2-3" value="회원" style="shape=umlActor;verticalLabelPosition=bottom;verticalAlign=top;html=1;" vertex="1" parent="1">
          <mxGeometry x="50" y="560" width="30" height="60" as="geometry" />
        </mxCell>
        <mxCell id="3shfianWEVpC9XnsPvR2-9" value="회원가입" style="ellipse;whiteSpace=wrap;html=1;" vertex="1" parent="1">
          <mxGeometry x="200" y="50" width="140" height="70" as="geometry" />
        </mxCell>
        <mxCell id="3shfianWEVpC9XnsPvR2-10" value="회원가입" style="ellipse;whiteSpace=wrap;html=1;" vertex="1" parent="1">
          <mxGeometry x="570" y="40" width="140" height="70" as="geometry" />
        </mxCell>
      </root>
    </mxGraphModel>
  </diagram>
</mxfile>
